<?xml version="1.0" standalone="no"?>
<!DOCTYPE svg PUBLIC "-//W3C//DTD SVG 20010904//EN"
 "http://www.w3.org/TR/2001/REC-SVG-20010904/DTD/svg10.dtd">
<svg version="1.0" xmlns="http://www.w3.org/2000/svg"
 width="200.000000pt" height="200.000000pt" viewBox="0 0 200.000000 200.000000"
 preserveAspectRatio="xMidYMid meet">
<metadata>
Created by potrace 1.14, written by Peter Selinger 2001-2017
</metadata>
<g transform="translate(0.000000,200.000000) scale(0.100000,-0.100000)"
fill="#000000" stroke="none">
<path d="M614 1533 c-12 -2 -36 -20 -55 -39 l-34 -35 -3 -200 -4 -199 -79 0
-79 0 0 -60 0 -60 80 0 80 0 0 -189 c0 -179 1 -190 23 -222 43 -64 64 -69 322
-69 212 0 233 2 263 20 66 40 72 63 72 273 l0 187 117 0 117 0 -58 -59 -58
-59 42 -42 43 -43 118 120 c84 84 119 127 119 143 0 16 -35 59 -118 143 l-119
119 -43 -42 -43 -42 59 -59 58 -59 -116 0 -117 0 -3 194 c-3 178 -5 197 -24
223 -43 59 -66 63 -314 62 -124 -1 -234 -4 -246 -6z m461 -533 l0 -415 -215 0
-215 0 -3 178 -2 177 120 0 120 0 0 60 0 60 -120 0 -120 0 0 173 c0 96 3 177
7 181 4 3 102 5 217 4 l211 -3 0 -415z"/>
</g>
</svg>
